<svg width="1424" height="240" viewBox="0 0 1424 240" fill="none" xmlns="http://www.w3.org/2000/svg">
<path fill-rule="evenodd" clip-rule="evenodd" d="M1424 156.33V93.578H1395.2V135.413H1365.2V156.33H1336.4V219.083H1306.4V51.7431H1277.6V219.083H1247.6V72.6605H1218.8V240H1188.8V177.248H1160V72.6605H1130V198.165H1101.2V72.6605H1071.2V51.7431H1042.4V219.083H1012.4V156.33H983.6V240H953.6V72.6605H924.8V114.495H894.8V93.578H866V177.248H836V198.165H807.2V156.33H777.2V135.413H748.4V177.248H718.4V219.083H689.6V72.6605H659.6V135.413H630.8V240H600.8V72.6605H572V135.413H542V240H513.2V51.7431H483.2V240H454.4V177.248H424.4V156.33H395.6V72.6605H365.6V198.165H336.8V51.7431H306.8V135.413H278V219.083H248H219.2V240H189.2V198.165H160.4V240H130.4V219.083H101.6V198.165H71.6V30.8257H42.7999V51.7431H12.7999H-16V240H12.7999H42.7999H71.6H101.6H130.4H160.4H189.2H219.2H248H278H306.8H336.8H365.6H395.6H424.4H454.4H483.2H513.2H542H572H600.8H630.8H659.6H689.6H718.4H748.4H777.2H807.2H836H866H894.8H924.8H953.6H983.6H1012.4H1042.4H1071.2H1101.2H1130H1160H1188.8H1218.8H1247.6H1277.6H1306.4H1336.4H1365.2H1395.2H1424V156.33Z" fill="#FF0000"/>
<path fill-rule="evenodd" clip-rule="evenodd" d="M-16 24V192H12.8V168H42.8V120H71.6V192H101.6V72H130.4V48H160.4V168H189.2H219.2V96H248V192H278V240H306.8V120H336.8H365.6V192H395.6V0H424.4H454.4V240H483.2V216H513.2V192H542V120H572H600.8V72H630.8V192H659.6V96H689.6V72H718.4V216H748.4V168H777.2V120H807.2H836V24H866V120H894.8V0H924.8V216H953.6V96H983.6V24H1012.4V216H1042.4V240H1071.2V144H1101.2V240H1130V120H1160V168H1188.8H1218.8V144H1247.6V216H1277.6V24H1306.4V120H1336.4V24H1365.2V120H1395.2V192H1424V240H1395.2H1365.2H1336.4H1306.4H1277.6H1247.6H1218.8H1188.8H1160H1130H1101.2H1071.2H1042.4H1012.4H983.6H953.6H924.8H894.8H866H836H807.2H777.2H748.4H718.4H689.6H659.6H630.8H600.8H572H542H513.2H483.2H454.4H424.4H395.6H365.6H336.8H306.8H278H248H219.2H189.2H160.4H130.4H101.6H71.6H42.8H12.8H-16V24Z" fill="#8000FF"/>
<path fill-rule="evenodd" clip-rule="evenodd" d="M-16 197.725V166.018H12.8V187.156H42.8V197.725H71.6V229.431H101.6V144.881H130.4V229.431H160.4V155.45H189.2V240H219.2V208.294H248V155.45H278V218.862H306.8V155.45H336.8V144.881H365.6V229.431H395.6V197.725H424.4V240H454.4V155.45H483.2V176.587H513.2V166.018H542V208.294H572V218.862H600.8V197.725H630.8V187.156H659.6V208.294H689.6V229.431H718.4V155.45H748.4V187.156H777.2V240H807.2V155.45H836V187.156H866V240H894.8V144.881H924.8V240H953.6V208.294H983.6V197.725H1012.4V155.45H1042.4V218.862H1071.2V144.881H1101.2V187.156H1130V229.431H1160H1188.8V240H1218.8V218.862H1247.6V240H1277.6V229.431H1306.4V218.862H1336.4V134.312H1365.2V144.881H1395.2H1424V240H1395.2H1365.2H1336.4H1306.4H1277.6H1247.6H1218.8H1188.8H1160H1130H1101.2H1071.2H1042.4H1012.4H983.6H953.6H924.8H894.8H866H836H807.2H777.2H748.4H718.4H689.6H659.6H630.8H600.8H572H542H513.2H483.2H454.4H424.4H395.6H365.6H336.8H306.8H278H248H219.2H189.2H160.4H130.4H101.6H71.6H42.8H12.8H-16V197.725Z" fill="#0099FF"/>
</svg>
